<svg id="Layer_2" data-name="Layer 2" xmlns="http://www.w3.org/2000/svg" viewBox="0 0 512 360"><defs><style>.cls-1{fill:#fff;}</style></defs><path class="cls-1" d="M91.43,347.19a1.33,1.33,0,0,1-1.31-1.31V308.55a1.28,1.28,0,0,1,1.31-1.25h9.35c4.73,0,8.38,3.08,8.38,8.38v23.14c0,5.3-3.65,8.37-8.38,8.37Zm9.46-3.81c2.74,0,4.1-2.06,4.1-4.79V315.91c0-2.74-1.36-4.79-4.1-4.79H94.28v32.26Z"/><path class="cls-1" d="M132.35,347.19h-2.28c-4.73,0-8.38-3-8.38-8.26V315.56c0-5.3,3.65-8.26,8.38-8.26h2.28c4.73,0,8.38,3,8.38,8.26v23.37C140.73,344.23,137.08,347.19,132.35,347.19Zm4.22-31.28c0-3.08-1.49-4.79-4.45-4.79H130.3c-3,0-4.45,1.71-4.45,4.79v22.68c0,3.13,1.48,4.79,4.45,4.79h1.82c3,0,4.45-1.71,4.45-4.79Z"/><path class="cls-1" d="M161.24,347.19c-4.73,0-8-3-8-8.26V315.56c0-5.3,3.65-8.26,8.38-8.26h2.28c4.73,0,8.38,3,8.38,8.26v4a1.29,1.29,0,0,1-1.31,1.31h-1.54a1.32,1.32,0,0,1-1.31-1.31v-3.64c0-3.08-1.48-4.79-4.45-4.79h-1.82c-3,0-4.45,1.71-4.45,4.79v22.68c0,3.13,1.48,4.79,4.45,4.79h1.65c2.91,0,4.27-2.06,4.27-4.79v-8.72a1.33,1.33,0,0,1,1.32-1.31h1.53a1.29,1.29,0,0,1,1.32,1.31v16a1.33,1.33,0,0,1-1.32,1.31h-1.19a1.29,1.29,0,0,1-1.31-1.31V344.4a6.78,6.78,0,0,1-5.93,2.79Z"/><path class="cls-1" d="M219.2,311.12h-6.9v34.76a1.32,1.32,0,0,1-1.31,1.31h-1.54a1.33,1.33,0,0,1-1.31-1.31V311.12h-6.89a1.32,1.32,0,0,1-1.31-1.31v-1.2a1.32,1.32,0,0,1,1.31-1.31H219.2a1.33,1.33,0,0,1,1.31,1.31v1.2A1.33,1.33,0,0,1,219.2,311.12Z"/><path class="cls-1" d="M235.21,345.88a1.29,1.29,0,0,1-1.31,1.31h-1.54a1.33,1.33,0,0,1-1.31-1.31V308.55a1.28,1.28,0,0,1,1.31-1.25h9.35c4.73,0,8.38,3.08,8.38,8.38v4.1c0,3.25-1.43,5.93-4.28,7a6.83,6.83,0,0,1,4.28,6.78v10.15c0,1,.28,2,.28,2.5s-.45,1-1.2,1h-1c-1.6,0-2.22-.91-2.22-2.5v-11c0-3.25-1.89-5-5.19-5H235.1ZM241.59,325c2.8,0,4.34-2.1,4.34-4.84v-4.27c0-2.74-1.54-4.91-4.28-4.91h-6.44v14Z"/><path class="cls-1" d="M275.5,335.91h-9l-1.83,10.14a1.22,1.22,0,0,1-1.31,1.14h-1.65c-.68,0-1.2-.28-1.2-1a8.68,8.68,0,0,1,.17-1.2l7.07-36.36a1.4,1.4,0,0,1,1.37-1.31h4.1a1.42,1.42,0,0,1,1.37,1.31l6.9,36a11.32,11.32,0,0,1,.17,1.48,1.05,1.05,0,0,1-1.14,1.14h-1.83a1.22,1.22,0,0,1-1.31-1.14Zm-8.32-3.59h7.7l-3.82-21.09Z"/><path class="cls-1" d="M296.36,345.88a1.29,1.29,0,0,1-1.31,1.31h-1.54a1.29,1.29,0,0,1-1.31-1.31V308.61a1.29,1.29,0,0,1,1.31-1.31h1.54a1.29,1.29,0,0,1,1.31,1.31Z"/><path class="cls-1" d="M308.9,308.61a1.33,1.33,0,0,1,1.31-1.31h2.22c.8,0,1.25.23,1.6,1.2l9.57,28.55V308.61a1.33,1.33,0,0,1,1.31-1.31h1.37a1.33,1.33,0,0,1,1.31,1.31v37.27a1.29,1.29,0,0,1-1.31,1.31h-2.17c-.74,0-1.14-.22-1.48-1.19l-9.74-28.9v28.78a1.29,1.29,0,0,1-1.32,1.31h-1.36a1.29,1.29,0,0,1-1.31-1.31Z"/><path class="cls-1" d="M344.29,345.88a1.29,1.29,0,0,1-1.31,1.31h-1.54a1.29,1.29,0,0,1-1.31-1.31V308.61a1.29,1.29,0,0,1,1.31-1.31H343a1.29,1.29,0,0,1,1.31,1.31Z"/><path class="cls-1" d="M356.82,308.61a1.33,1.33,0,0,1,1.31-1.31h2.23a1.45,1.45,0,0,1,1.59,1.2l9.58,28.55V308.61a1.33,1.33,0,0,1,1.31-1.31h1.37a1.33,1.33,0,0,1,1.31,1.31v37.27a1.29,1.29,0,0,1-1.31,1.31H372c-.74,0-1.14-.22-1.48-1.19l-9.75-28.9v28.78a1.29,1.29,0,0,1-1.31,1.31h-1.37a1.29,1.29,0,0,1-1.31-1.31Z"/><path class="cls-1" d="M396,347.19c-4.73,0-8-3-8-8.26V315.56c0-5.3,3.65-8.26,8.38-8.26h2.28c4.73,0,8.38,3,8.38,8.26v4a1.29,1.29,0,0,1-1.31,1.31h-1.54a1.32,1.32,0,0,1-1.31-1.31v-3.64c0-3.08-1.48-4.79-4.45-4.79h-1.82c-3,0-4.45,1.71-4.45,4.79v22.68c0,3.13,1.49,4.79,4.45,4.79h1.65c2.91,0,4.28-2.06,4.28-4.79v-8.72a1.32,1.32,0,0,1,1.31-1.31h1.54a1.29,1.29,0,0,1,1.31,1.31v16a1.33,1.33,0,0,1-1.31,1.31h-1.2a1.29,1.29,0,0,1-1.31-1.31V344.4a6.78,6.78,0,0,1-5.93,2.79Z"/><path class="cls-1" d="M45,205.55H31v73.58a3,3,0,0,1-2.91,2.92H20.9A3,3,0,0,1,18,279.13V205.55H4.18a2.94,2.94,0,0,1-2.91-2.91v-6.33a3,3,0,0,1,2.91-2.92H45a3,3,0,0,1,2.91,2.92v6.33A2.94,2.94,0,0,1,45,205.55Z"/><path class="cls-1" d="M67.88,279.13A2.87,2.87,0,0,1,65,282.05H57.75a3,3,0,0,1-2.92-2.92V196.18a2.84,2.84,0,0,1,2.92-2.79H82.57c9.88,0,17.73,7.22,17.73,17.73V222.4c0,7-3,12.41-9.75,14.81,7.22,2.79,9.75,8.87,9.75,14.57v22.54c0,2.15.63,4.56.63,5.57,0,1.27-1,2.16-2.66,2.16H92.45c-2.79,0-5.2-1.27-5.2-6.46V251.65c0-4.94-3.42-8.36-8.61-8.36H67.88Zm11.78-47.87c4.81,0,7.59-3.29,7.59-8.1v-9.5c0-4.82-2.78-8.24-7.59-8.24H67.88v25.84Z"/><path class="cls-1" d="M137.66,282.05h-9.25c-9.88,0-17.73-7.22-17.73-17.73v-68a2.87,2.87,0,0,1,2.91-2.92h7.22a2.87,2.87,0,0,1,2.91,2.92v65.47c0,4.82,2.66,8.11,7.35,8.11H135c4.81,0,7.34-3.29,7.34-8.11V196.31a2.87,2.87,0,0,1,2.91-2.92h7.22a2.87,2.87,0,0,1,2.92,2.92v68C155.39,274.83,147.54,282.05,137.66,282.05Z"/><path class="cls-1" d="M168.68,282.05a3,3,0,0,1-2.91-2.92V196.18a2.92,2.92,0,0,1,2.91-2.79H205a2.84,2.84,0,0,1,2.91,2.79v6.46a2.86,2.86,0,0,1-2.91,2.91H178.81v25.58H200.6a2.87,2.87,0,0,1,2.91,2.92v6.46a2.84,2.84,0,0,1-2.91,2.78H178.81v26.6h26.85a2.84,2.84,0,0,1,2.91,2.78v6.46a2.87,2.87,0,0,1-2.91,2.92Z"/><path class="cls-1" d="M275.19,250.64V196.31a3,3,0,0,1,2.91-2.92h6.84a3,3,0,0,1,2.91,2.92v82.82a2.87,2.87,0,0,1-2.91,2.92h-7.48c-1.89,0-2.91-.64-3.67-2.79L255.3,224v55.09a2.87,2.87,0,0,1-2.91,2.92h-6.71a2.87,2.87,0,0,1-2.92-2.92V196.31a3,3,0,0,1,2.92-2.92h8.1c1.77,0,2.92.64,3.68,2.79Z"/><path class="cls-1" d="M344.71,264.44c0,11.91-8.86,17.61-19.5,17.61h-6.46c-10.64,0-19.5-5.7-19.5-17.61V211c0-11.78,8.86-17.61,19.5-17.61h6.46c10.64,0,19.5,5.83,19.5,17.61Zm-13-50.78c0-5.2-3-8.11-7.73-8.11H320c-4.69,0-7.73,2.91-7.73,8.11v48.12c0,5.2,3,8.11,7.73,8.11h3.92c4.69,0,7.73-2.91,7.73-8.11Z"/><path class="cls-1" d="M369.15,279.13a2.87,2.87,0,0,1-2.91,2.92H359a3,3,0,0,1-2.91-2.92V196.18a2.84,2.84,0,0,1,2.91-2.79h24.82c9.88,0,17.73,7.22,17.73,17.73V222.4c0,7-3,12.41-9.75,14.81,7.22,2.79,9.75,8.87,9.75,14.57v22.54c0,2.15.64,4.56.64,5.57,0,1.27-1,2.16-2.66,2.16h-5.83c-2.79,0-5.19-1.27-5.19-6.46V251.65c0-4.94-3.42-8.36-8.61-8.36H369.15Zm11.78-47.87c4.81,0,7.6-3.29,7.6-8.1v-9.5c0-4.82-2.79-8.24-7.6-8.24H369.15v25.84Z"/><path class="cls-1" d="M451,205.55H437v73.58a3,3,0,0,1-2.91,2.92H426.9a3,3,0,0,1-2.91-2.92V205.55H410.18a2.94,2.94,0,0,1-2.91-2.91v-6.33a3,3,0,0,1,2.91-2.92H451a3,3,0,0,1,2.92,2.92v6.33A3,3,0,0,1,451,205.55Z"/><path class="cls-1" d="M506.3,279.13a2.87,2.87,0,0,1-2.91,2.92h-7.22a2.87,2.87,0,0,1-2.91-2.92V243.29H473.88v35.84a2.87,2.87,0,0,1-2.91,2.92h-7.22a2.87,2.87,0,0,1-2.91-2.92V196.31a2.87,2.87,0,0,1,2.91-2.92H471a2.87,2.87,0,0,1,2.91,2.92v34.82h19.38V196.31a2.87,2.87,0,0,1,2.91-2.92h7.22a2.87,2.87,0,0,1,2.91,2.92Z"/><path class="cls-1" d="M507.7,168.51,403.22,64,358.9,105.19,265.5,13.37,218,57.7H192.68L162.6,87.77H149.94l-47.49,45.91L70.79,100.44,1.13,168.51H7.47l60.15-58.57L40.71,160.59,55,146.35l22.16,22.16H97.7l23.74-22.16h17.42L161,124.18,134.11,140h-28.5l45.91-45.9h12.66L194.26,64h20.58L203.76,75.11h-9.5V90.94L265.5,19.7l1.58,7.92L260.75,38.7l7.91-6.33,4.75,15.83L249.67,81.44l28.49-15.83,3.17,7.92V83l-64.91,64.9L246.5,132.1l6.33,36.41h50.66l99.73-98.15v44.33l-30.08,39.57,28.5-15.83,30.07,30.08Z"/></svg>