<svg id="Layer_2" data-name="Layer 2" xmlns="http://www.w3.org/2000/svg" viewBox="0 0 512 360"><defs><style>.cls-1{font-size:56.99px;font-family:AvenyT, Aveny T;letter-spacing:0.1em;}.cls-1,.cls-2,.cls-5{fill:#fff;}.cls-2{font-size:126.64px;font-family:AvenyT-Medium, Aveny T;font-weight:500;}.cls-3{letter-spacing:-0.01em;}.cls-4{letter-spacing:0em;}</style></defs><text class="cls-1" transform="translate(86.7 347.19)">DOG TRAINING</text><text class="cls-2" transform="translate(0 282.05)">TRUE NO<tspan class="cls-3" x="350.41" y="0">R</tspan><tspan class="cls-4" x="406" y="0">TH</tspan></text><path class="cls-5" d="M507.7,168.51,403.22,64,358.9,105.19,265.5,13.37,218,57.7H192.68L162.6,87.77H149.94l-47.49,45.91L70.79,100.44,1.13,168.51H7.47l60.15-58.57L40.71,160.59,55,146.35l22.16,22.16H97.7l23.74-22.16h17.42L161,124.18,134.11,140h-28.5l45.91-45.9h12.66L194.26,64h20.58L203.76,75.11h-9.5V90.94L265.5,19.7l1.58,7.92L260.75,38.7l7.91-6.33,4.75,15.83L249.67,81.44l28.49-15.83,3.17,7.92V83l-64.91,64.9L246.5,132.1l6.33,36.41h50.66l99.73-98.15v44.33l-30.08,39.57,28.5-15.83,30.07,30.08Z"/></svg>